<svg width="140" height="23" viewBox="0 0 140 23" fill="none" xmlns="http://www.w3.org/2000/svg">
<path fill-rule="evenodd" clip-rule="evenodd" d="M59.8235 19.7013C56.999 19.7013 55.0282 17.6627 55.0282 14.7413C55.0282 11.5707 56.9093 9.52133 59.8235 9.52133C62.7146 9.52133 64.6569 11.5733 64.6569 14.6307C64.6569 17.6653 62.7146 19.7013 59.8235 19.7013ZM59.8235 6.52933C55.2497 6.52933 51.5268 10.0973 51.5268 14.4827C51.5268 19.1653 55.0784 22.6933 59.7854 22.6933C64.5577 22.6933 68.1569 19.212 68.1569 14.5947C68.1569 10.072 64.4965 6.52933 59.8235 6.52933ZM94.1221 15.184C94.1262 16.6213 94.1126 19.4987 94.1072 20.9373C94.1031 21.8067 93.3841 22.5093 92.4979 22.5067C91.6144 22.5053 90.8994 21.8027 90.8967 20.9373C90.8926 19.2747 90.8845 15.9507 90.8831 14.288C90.8804 12.1627 90.5188 10.796 89.4614 10.1187C88.741 9.65467 87.7243 9.58533 86.7606 10.108C85.5454 10.7627 85.0996 11.6333 85.0996 13.5573C85.0996 14.2293 85.1037 19.092 85.0996 20.9373C85.0969 21.8067 84.3738 22.5067 83.4876 22.5053C82.6054 22.5013 81.8932 21.7987 81.8891 20.9373C81.8823 19.2773 81.8674 15.9547 81.8647 14.2947C81.8592 11.7213 81.3332 10.5987 80.1181 9.928C79.5227 9.59867 78.2505 9.65733 77.6837 10.0267C76.3272 10.9107 76.0907 12.0547 76.0907 13.7907V20.9373C76.0907 21.8053 75.3717 22.5107 74.4868 22.5107C73.6006 22.5107 72.8816 21.8053 72.8816 20.9373V8.70667C72.8816 7.83867 73.6006 7.132 74.4868 7.132C75.3717 7.132 76.0907 7.80667 76.0907 8.752C76.2715 8.468 76.7717 7.98267 77.0136 7.8C77.9759 7.07867 78.8662 6.67067 80.3451 6.70133C81.0736 6.72133 81.7872 6.92667 82.4233 7.284C83.1138 7.688 83.9932 8.61333 84.2841 9.37467C84.5736 8.748 85.0819 8.14533 85.6134 7.74267C86.5975 6.99867 87.7256 6.52667 89.1895 6.59867C90.6045 6.668 91.9746 7.38133 92.888 8.564C93.8245 9.78 93.9753 11.0627 94.0746 12.132C94.1629 13.224 94.1181 14.2507 94.1221 15.184ZM139.664 2.15733C139.664 3.348 138.68 4.31467 137.465 4.31467C136.25 4.31467 135.264 3.348 135.264 2.15733C135.264 0.965333 136.25 0 137.465 0C138.68 0 139.664 0.965333 139.664 2.15733ZM112.847 8.49733C112.864 11.1267 112.957 13.564 112.798 16.352C112.718 17.78 112.29 19.4987 110.991 20.8267C110.38 21.4507 109.549 21.9507 108.756 22.2067C107.944 22.4693 107.199 22.6147 106.324 22.6147C105.449 22.616 104.704 22.472 103.891 22.2093C103.097 21.9533 102.265 21.4533 101.654 20.828C100.356 19.4987 99.9301 17.78 99.8499 16.352C99.6922 13.564 99.7915 11.1267 99.801 8.49733C99.8051 7.62667 100.521 6.924 101.408 6.924C102.29 6.92533 103.007 7.632 103.01 8.49733C103.018 10.408 102.953 14.056 103.02 16.1453C103.056 17.2693 103.339 18.212 103.846 18.8173C104.348 19.4173 105.341 19.82 106.324 19.8213C107.307 19.8227 108.302 19.4213 108.804 18.82C109.311 18.212 109.583 17.2693 109.628 16.1453C109.703 14.2413 109.635 10.408 109.638 8.49733C109.639 7.62667 110.358 6.924 111.244 6.924C112.125 6.92533 112.841 7.632 112.847 8.49733ZM130.144 21.9453C129.847 22.184 129.486 22.3 129.128 22.3C128.664 22.3 128.203 22.104 127.887 21.7253L122.731 15.5627L121.781 16.4587V20.728C121.781 21.596 121.062 22.3 120.176 22.3C119.29 22.3 118.572 21.596 118.572 20.728V1.84C118.572 0.970667 119.29 0.265333 120.176 0.265333C121.062 0.265333 121.781 0.970667 121.781 1.84V12.3827L127.134 7.32933C127.728 6.76667 128.676 6.784 129.25 7.36667C129.824 7.95067 129.806 8.88267 129.209 9.444L125.05 13.3733L130.367 19.7293C130.93 20.4 130.829 21.3933 130.144 21.9453ZM137.465 22.3C136.579 22.3 135.86 21.596 135.86 20.728V8.49733C135.86 7.62667 136.579 6.92267 137.465 6.92267C138.35 6.92267 139.069 7.62667 139.069 8.49733V20.728C139.069 21.596 138.35 22.3 137.465 22.3ZM10.5258 19.8987C6.43864 19.8987 3.41981 17.148 3.41981 12.8573C3.41981 6.44667 7.29495 9.068 10.5082 8.136C13.8845 7.15733 17.5965 5.50667 17.5965 13.0147C17.5965 17.1453 14.5192 19.8987 10.5258 19.8987ZM10.5231 2.28C4.62272 2.28 0 6.75467 0 12.464C0 18.2973 4.54524 22.6933 10.572 22.6933C16.5173 22.6933 21.0014 18.2373 21.0014 12.3253C21.0014 6.78533 16.2998 2.28 10.5231 2.28ZM47.0917 15.184C47.0971 16.6213 47.0821 19.4987 47.0781 20.9373C47.074 21.8067 46.355 22.5093 45.4687 22.5067C44.5852 22.5053 43.8703 21.8027 43.8676 20.9373C43.8635 19.2747 43.854 15.9507 43.8526 14.288C43.8513 12.1627 43.4884 10.796 42.4322 10.1187C41.7105 9.65467 40.6951 9.58533 39.7315 10.108C38.5163 10.7627 38.0691 11.6333 38.0691 13.5573C38.0691 14.2293 38.0732 19.092 38.0691 20.9373C38.0678 21.8067 37.3433 22.5067 36.4584 22.5053C35.5763 22.5013 34.8641 21.7987 34.86 20.9373C34.8518 19.2773 34.8383 15.9547 34.8355 14.2947C34.8301 11.7213 34.3041 10.5987 33.0889 9.928C32.4936 9.59867 31.2214 9.65733 30.6546 10.0267C29.2981 10.9107 29.0616 12.0547 29.0616 13.7907V20.9373C29.0616 21.8053 28.3425 22.5107 27.4577 22.5107C26.5715 22.5107 25.8524 21.8053 25.8524 20.9373V8.70667C25.8524 7.83867 26.5715 7.132 27.4577 7.132C28.3425 7.132 29.0616 7.80667 29.0616 8.752C29.2423 8.468 29.7425 7.98267 29.9845 7.8C30.9468 7.07867 31.8371 6.67067 33.3159 6.70133C34.0445 6.72133 34.7581 6.92667 35.3928 7.284C36.0847 7.688 36.9641 8.61333 37.255 9.37467C37.5431 8.748 38.0528 8.14533 38.5843 7.74267C39.5684 6.99867 40.6965 6.52667 42.1604 6.59867C43.5753 6.668 44.9454 7.38133 45.8588 8.564C46.7953 9.78 46.9462 11.0627 47.0454 12.132C47.1338 13.224 47.0889 14.2507 47.0917 15.184Z" fill="white"/>
</svg>
