<svg width="104" height="18" viewBox="0 0 104 18" fill="none" xmlns="http://www.w3.org/2000/svg">
<path fill-rule="evenodd" clip-rule="evenodd" d="M44.613 15.1764C42.535 15.1764 41.085 13.6474 41.085 11.4564C41.085 9.07839 42.469 7.54139 44.613 7.54139C46.74 7.54139 48.169 9.08039 48.169 11.3734C48.169 13.6494 46.74 15.1764 44.613 15.1764ZM44.613 5.29739C41.248 5.29739 38.509 7.97339 38.509 11.2624C38.509 14.7744 41.122 17.4204 44.585 17.4204C48.096 17.4204 50.744 14.8094 50.744 11.3464C50.744 7.95439 48.051 5.29739 44.613 5.29739ZM69.847 11.7884C69.85 12.8664 69.84 15.0244 69.836 16.1034C69.833 16.7554 69.304 17.2824 68.652 17.2804C68.002 17.2794 67.476 16.7524 67.474 16.1034C67.471 14.8564 67.465 12.3634 67.464 11.1164C67.462 9.52239 67.196 8.49739 66.418 7.98939C65.888 7.64139 65.14 7.58939 64.431 7.98139C63.537 8.47239 63.209 9.12539 63.209 10.5684C63.209 11.0724 63.212 14.7194 63.209 16.1034C63.207 16.7554 62.675 17.2804 62.023 17.2794C61.374 17.2764 60.85 16.7494 60.847 16.1034C60.842 14.8584 60.831 12.3664 60.829 11.1214C60.825 9.19139 60.438 8.34939 59.544 7.84639C59.106 7.59939 58.17 7.64339 57.753 7.92039C56.755 8.58339 56.581 9.44139 56.581 10.7434V16.1034C56.581 16.7544 56.052 17.2834 55.401 17.2834C54.749 17.2834 54.22 16.7544 54.22 16.1034V6.93039C54.22 6.27939 54.749 5.74939 55.401 5.74939C56.052 5.74939 56.581 6.25539 56.581 6.96439C56.714 6.75139 57.082 6.38739 57.26 6.25039C57.968 5.70939 58.623 5.40339 59.711 5.42639C60.247 5.44139 60.772 5.59539 61.24 5.86339C61.748 6.16639 62.395 6.86039 62.609 7.43139C62.822 6.96139 63.196 6.50939 63.587 6.20739C64.311 5.64939 65.141 5.29539 66.218 5.34939C67.259 5.40139 68.267 5.93639 68.939 6.82339C69.628 7.73539 69.739 8.69739 69.812 9.49939C69.877 10.3184 69.844 11.0884 69.847 11.7884ZM103.353 2.01839C103.353 2.91139 102.629 3.63639 101.735 3.63639C100.841 3.63639 100.116 2.91139 100.116 2.01839C100.116 1.12439 100.841 0.400391 101.735 0.400391C102.629 0.400391 103.353 1.12439 103.353 2.01839ZM83.623 6.77339C83.636 8.74539 83.704 10.5734 83.587 12.6644C83.528 13.7354 83.213 15.0244 82.258 16.0204C81.808 16.4884 81.197 16.8634 80.613 17.0554C80.016 17.2524 79.468 17.3614 78.824 17.3614C78.18 17.3624 77.632 17.2544 77.034 17.0574C76.45 16.8654 75.838 16.4904 75.388 16.0214C74.433 15.0244 74.12 13.7354 74.061 12.6644C73.945 10.5734 74.018 8.74539 74.025 6.77339C74.028 6.12039 74.555 5.59339 75.207 5.59339C75.856 5.59439 76.384 6.12439 76.386 6.77339C76.392 8.20639 76.344 10.9424 76.393 12.5094C76.42 13.3524 76.628 14.0594 77.001 14.5134C77.37 14.9634 78.101 15.2654 78.824 15.2664C79.547 15.2674 80.279 14.9664 80.649 14.5154C81.022 14.0594 81.222 13.3524 81.255 12.5094C81.31 11.0814 81.26 8.20639 81.262 6.77339C81.263 6.12039 81.792 5.59339 82.444 5.59339C83.092 5.59439 83.619 6.12439 83.623 6.77339ZM96.349 16.8594C96.13 17.0384 95.865 17.1254 95.601 17.1254C95.26 17.1254 94.921 16.9784 94.688 16.6944L90.895 12.0724L90.196 12.7444V15.9464C90.196 16.5974 89.667 17.1254 89.015 17.1254C88.363 17.1254 87.835 16.5974 87.835 15.9464V1.78039C87.835 1.12839 88.363 0.599391 89.015 0.599391C89.667 0.599391 90.196 1.12839 90.196 1.78039V9.68739L94.134 5.89739C94.571 5.47539 95.269 5.48839 95.691 5.92539C96.113 6.36339 96.1 7.06239 95.661 7.48339L92.601 10.4304L96.513 15.1974C96.927 15.7004 96.853 16.4454 96.349 16.8594ZM101.735 17.1254C101.083 17.1254 100.554 16.5974 100.554 15.9464V6.77339C100.554 6.12039 101.083 5.59239 101.735 5.59239C102.386 5.59239 102.915 6.12039 102.915 6.77339V15.9464C102.915 16.5974 102.386 17.1254 101.735 17.1254ZM8.34398 15.3244C5.33698 15.3244 3.11598 13.2614 3.11598 10.0434C3.11598 5.23539 5.96698 7.20139 8.33098 6.50239C10.815 5.76839 13.546 4.53039 13.546 10.1614C13.546 13.2594 11.282 15.3244 8.34398 15.3244ZM8.34198 2.11039C4.00098 2.11039 0.599976 5.46639 0.599976 9.74839C0.599976 14.1234 3.94398 17.4204 8.37798 17.4204C12.752 17.4204 16.051 14.0784 16.051 9.64439C16.051 5.48939 12.592 2.11039 8.34198 2.11039ZM35.246 11.7884C35.25 12.8664 35.239 15.0244 35.236 16.1034C35.233 16.7554 34.704 17.2824 34.052 17.2804C33.402 17.2794 32.876 16.7524 32.874 16.1034C32.871 14.8564 32.864 12.3634 32.863 11.1164C32.862 9.52239 32.595 8.49739 31.818 7.98939C31.287 7.64139 30.54 7.58939 29.831 7.98139C28.937 8.47239 28.608 9.12539 28.608 10.5684C28.608 11.0724 28.611 14.7194 28.608 16.1034C28.607 16.7554 28.074 17.2804 27.423 17.2794C26.774 17.2764 26.25 16.7494 26.247 16.1034C26.241 14.8584 26.231 12.3664 26.229 11.1214C26.225 9.19139 25.838 8.34939 24.944 7.84639C24.506 7.59939 23.57 7.64339 23.153 7.92039C22.155 8.58339 21.981 9.44139 21.981 10.7434V16.1034C21.981 16.7544 21.452 17.2834 20.801 17.2834C20.149 17.2834 19.62 16.7544 19.62 16.1034V6.93039C19.62 6.27939 20.149 5.74939 20.801 5.74939C21.452 5.74939 21.981 6.25539 21.981 6.96439C22.114 6.75139 22.482 6.38739 22.66 6.25039C23.368 5.70939 24.023 5.40339 25.111 5.42639C25.647 5.44139 26.172 5.59539 26.639 5.86339C27.148 6.16639 27.795 6.86039 28.009 7.43139C28.221 6.96139 28.596 6.50939 28.987 6.20739C29.711 5.64939 30.541 5.29539 31.618 5.34939C32.659 5.40139 33.667 5.93639 34.339 6.82339C35.028 7.73539 35.139 8.69739 35.212 9.49939C35.277 10.3184 35.244 11.0884 35.246 11.7884Z" fill="black"/>
</svg>
